<svg  xmlns="http://www.w3.org/2000/svg" width="145px" height="318px" style="background-color: rgba(64,64,64,1.0);float:left" 	xmlns:xlink="http://www.w3.org/1999/xlink"><defs></defs><text id="text968339968" x="2.1500000000000004" y="13" style="fill:rgb(128,128,128); " transform="rotate(0, 6.75, 9) " class="" ><tspan font-family = "Arial, Helvetica, sans-serif" font-size="9px">20.0</tspan></text><text id="text186360320" x="2.1500000000000004" y="88" style="fill:rgb(128,128,128); " transform="rotate(0, 6.75, 84) " class="" ><tspan font-family = "Arial, Helvetica, sans-serif" font-size="9px">15.0</tspan></text><text id="text53804288" x="2.1500000000000004" y="163" style="fill:rgb(128,128,128); " transform="rotate(0, 6.75, 159) " class="" ><tspan font-family = "Arial, Helvetica, sans-serif" font-size="9px">10.0</tspan></text><text id="text199397120" x="4.85" y="238" style="fill:rgb(128,128,128); " transform="rotate(0, 8.25, 234) " class="" ><tspan font-family = "Arial, Helvetica, sans-serif" font-size="9px">5.0</tspan></text><text id="text119969792" x="4.85" y="313" style="fill:rgb(128,128,128); " transform="rotate(0, 8.25, 309) " class="" ><tspan font-family = "Arial, Helvetica, sans-serif" font-size="9px">0.0</tspan></text><rect id="rect920235008" x="40.0" y="8.5" width="5.0" height="1.0" style="fill:rgb(128,128,128); fill-opacity:1.0; " class="" /><rect id="rect213353216" x="40.0" y="83.5" width="5.0" height="1.0" style="fill:rgb(128,128,128); fill-opacity:1.0; " class="" /><rect id="rect604895488" x="40.0" y="158.5" width="5.0" height="1.0" style="fill:rgb(128,128,128); fill-opacity:1.0; " class="" /><rect id="rect291683840" x="40.0" y="233.5" width="5.0" height="1.0" style="fill:rgb(128,128,128); fill-opacity:1.0; " class="" /><rect id="rect700216832" x="40.0" y="308.5" width="5.0" height="1.0" style="fill:rgb(128,128,128); fill-opacity:1.0; " class="" /><rect id="rect334711040" x="45.0" y="309.0" width="0.0" height="0.0" style="fill:rgb(224,224,224); fill-opacity:1.0; " class="" /><rect id="rect156377856" x="45.0" y="9.0" width="0.0" height="0.0" style="fill:rgb(224,224,224); fill-opacity:1.0; " class="" /><line id="lineC" x1="45" y1="309" x2="45" y2="9" style="stroke:rgb(128,128,128); stroke-opacity:1.0; stroke-width:1; " class="" /><rect id="rect208404480" x="45.0" y="309.0" width="0.0" height="0.0" style="fill:rgb(224,224,224); fill-opacity:1.0; " class="" /><rect id="rect109072128" x="115.0" y="309.0" width="0.0" height="0.0" style="fill:rgb(224,224,224); fill-opacity:1.0; " class="" /><line id="lineF" x1="45" y1="309" x2="115" y2="309" style="stroke:rgb(128,128,128); stroke-opacity:1.0; stroke-width:1; " class="" /><rect id="rect1034078720" x="85.83" y="94.61" width="58.33" height="176.78" style="fill:rgb(224,224,224); fill-opacity:1.0; " class="" /><rect id="rect177228288" x="85.83" y="25.39" width="58.33" height="0.5" style="fill:rgb(0,0,0); fill-opacity:1.0; " class="" /><rect id="rect116823296" x="85.83" y="185.76" width="58.33" height="0.5" style="fill:rgb(0,0,0); fill-opacity:1.0; " class="" /><rect id="rect650426112" x="85.83" y="297.61" width="58.33" height="0.5" style="fill:rgb(0,0,0); fill-opacity:1.0; " class="" /><rect id="rect1020702720" x="114.75" y="25.64" width="0.5" height="68.97" style="fill:rgb(0,0,0); fill-opacity:1.0; " class="" /><rect id="rect852579328" x="114.75" y="271.4" width="0.5" height="26.47" style="fill:rgb(0,0,0); fill-opacity:1.0; " class="" /><rect id="rect216931072" x="115.0" y="268.54" width="0.0" height="0.0" style="fill:rgb(224,224,224); fill-opacity:1.0; " class="" /><rect id="rect608379136" x="115.0" y="30.79" width="0.0" height="0.0" style="fill:rgb(224,224,224); fill-opacity:1.0; " class="" /><rect id="rect859297280" x="115.0" y="191.73" width="0.0" height="0.0" style="fill:rgb(224,224,224); fill-opacity:1.0; " class="" /><rect id="rect383196672" x="115.0" y="292.96" width="0.0" height="0.0" style="fill:rgb(224,224,224); fill-opacity:1.0; " class="" /><rect id="rect83812608" x="115.0" y="133.48" width="0.0" height="0.0" style="fill:rgb(224,224,224); fill-opacity:1.0; " class="" /><rect id="rect964315904" x="115.0" y="297.62" width="0.0" height="0.0" style="fill:rgb(224,224,224); fill-opacity:1.0; " class="" /><rect id="rect199113728" x="115.0" y="187.76" width="0.0" height="0.0" style="fill:rgb(224,224,224); fill-opacity:1.0; " class="" /><rect id="rect726247424" x="115.0" y="184.26" width="0.0" height="0.0" style="fill:rgb(224,224,224); fill-opacity:1.0; " class="" /><rect id="rect817948416" x="115.0" y="210.15" width="0.0" height="0.0" style="fill:rgb(224,224,224); fill-opacity:1.0; " class="" /><rect id="rect143799552" x="115.0" y="274.26" width="0.0" height="0.0" style="fill:rgb(224,224,224); fill-opacity:1.0; " class="" /><rect id="rect920773120" x="115.0" y="179.0" width="0.0" height="0.0" style="fill:rgb(224,224,224); fill-opacity:1.0; " class="" /><rect id="rect668004864" x="115.0" y="249.26" width="0.0" height="0.0" style="fill:rgb(224,224,224); fill-opacity:1.0; " class="" /><rect id="rect114044160" x="115.0" y="130.83" width="0.0" height="0.0" style="fill:rgb(224,224,224); fill-opacity:1.0; " class="" /><rect id="rect112385792" x="115.0" y="30.29" width="0.0" height="0.0" style="fill:rgb(224,224,224); fill-opacity:1.0; " class="" /><rect id="rect156944384" x="115.0" y="297.86" width="0.0" height="0.0" style="fill:rgb(224,224,224); fill-opacity:1.0; " class="" /><rect id="rect655686656" x="115.0" y="31.81" width="0.0" height="0.0" style="fill:rgb(224,224,224); fill-opacity:1.0; " class="" /><rect id="rect314094336" x="115.0" y="287.46" width="0.0" height="0.0" style="fill:rgb(224,224,224); fill-opacity:1.0; " class="" /><rect id="rect470042880" x="115.0" y="25.64" width="0.0" height="0.0" style="fill:rgb(224,224,224); fill-opacity:1.0; " class="" /><rect id="rect492891648" x="115.0" y="58.4" width="0.0" height="0.0" style="fill:rgb(224,224,224); fill-opacity:1.0; " class="" /><rect id="rect113100288" x="115.0" y="165.06" width="0.0" height="0.0" style="fill:rgb(224,224,224); fill-opacity:1.0; " class="" /></svg>